<svg xmlns="http://www.w3.org/2000/svg" width="1200" height="800" viewBox="0 0 1200 800" role="img" aria-label="Predição de interrupções — demonstração com dados fictícios"><title>Predição de interrupções — demonstração com dados fictícios</title><style>text{font-family:'Segoe UI',Arial,sans-serif}*{box-sizing:border-box}</style><rect x="0" y="0" width="1200" height="800" rx="0" fill="#edf3f6" stroke="none"/><rect x="0" y="0" width="1200" height="90" rx="0" fill="#082b40" stroke="none"/><text x="30" y="38" font-size="13" font-weight="600" fill="#9cc4d4" text-anchor="start">PORTFÓLIO / DEMONSTRAÇÃO</text><text x="30" y="69" font-size="25" font-weight="700" fill="white" text-anchor="start">Probabilidade de interrupção</text><rect x="969" y="24" width="204" height="40" rx="20" fill="#20465a" stroke="none"/><text x="1071" y="50" font-size="15" font-weight="700" fill="#d7f4e8" text-anchor="middle">DADOS FICTÍCIOS</text><rect x="30" y="122" width="263" height="126" rx="12" fill="#ffffff" stroke="#dae5ea"/><rect x="31" y="123" width="261" height="4" rx="2" fill="#4f9daf" stroke="none"/><text x="50" y="156" font-size="16" font-weight="400" fill="#677f8c" text-anchor="start">Unidades</text><text x="50" y="202" font-size="35" font-weight="700" fill="#143548" text-anchor="start">6</text><rect x="323" y="122" width="263" height="126" rx="12" fill="#ffffff" stroke="#dae5ea"/><rect x="324" y="123" width="261" height="4" rx="2" fill="#4f9daf" stroke="none"/><text x="343" y="156" font-size="16" font-weight="400" fill="#677f8c" text-anchor="start">Efetividade média</text><text x="343" y="202" font-size="35" font-weight="700" fill="#143548" text-anchor="start">88%</text><rect x="616" y="122" width="263" height="126" rx="12" fill="#ffffff" stroke="#dae5ea"/><rect x="617" y="123" width="261" height="4" rx="2" fill="#4f9daf" stroke="none"/><text x="636" y="156" font-size="16" font-weight="400" fill="#677f8c" text-anchor="start">Menor risco</text><text x="636" y="202" font-size="35" font-weight="700" fill="#143548" text-anchor="start">Unidade F</text><rect x="909" y="122" width="263" height="126" rx="12" fill="#ffffff" stroke="#dae5ea"/><rect x="910" y="123" width="261" height="4" rx="2" fill="#4f9daf" stroke="none"/><text x="929" y="156" font-size="16" font-weight="400" fill="#677f8c" text-anchor="start">Maior risco</text><text x="929" y="202" font-size="35" font-weight="700" fill="#143548" text-anchor="start">Unidade A</text><rect x="30" y="278" width="1140" height="435" rx="12" fill="#ffffff" stroke="#dae5ea"/><text x="52" y="312" font-size="20" font-weight="600" fill="#143548" text-anchor="start">Cenário meteoceanográfico demonstrativo</text><rect x="52" y="335" width="1096" height="40" rx="4" fill="#eaf1f6" stroke="none"/><text x="66" y="361" font-size="14" font-weight="600" fill="#677f8c" text-anchor="start">Unidade fictícia</text><text x="364" y="361" font-size="14" font-weight="600" fill="#677f8c" text-anchor="start">Efetividade</text><text x="568" y="361" font-size="14" font-weight="600" fill="#677f8c" text-anchor="start">Risco</text><text x="758" y="361" font-size="14" font-weight="600" fill="#677f8c" text-anchor="start">Ondas (m)</text><text x="962" y="361" font-size="14" font-weight="600" fill="#677f8c" text-anchor="start">Vento (nós)</text><rect x="52" y="375" width="1096" height="51" rx="0" fill="#ffffff" stroke="none"/><path d="M52,426 L1148,426" stroke="#dae5ea" stroke-width="1" fill="none"/><text x="66" y="407" font-size="16" font-weight="600" fill="#143548" text-anchor="start">Unidade A</text><text x="364" y="407" font-size="16" font-weight="400" fill="#677f8c" text-anchor="start">78%</text><text x="568" y="407" font-size="16" font-weight="400" fill="#677f8c" text-anchor="start">22%</text><text x="758" y="407" font-size="16" font-weight="400" fill="#677f8c" text-anchor="start">1,8</text><text x="962" y="407" font-size="16" font-weight="400" fill="#677f8c" text-anchor="start">16</text><rect x="52" y="426" width="1096" height="51" rx="0" fill="#f7fafb" stroke="none"/><path d="M52,477 L1148,477" stroke="#dae5ea" stroke-width="1" fill="none"/><text x="66" y="458" font-size="16" font-weight="600" fill="#143548" text-anchor="start">Unidade B</text><text x="364" y="458" font-size="16" font-weight="400" fill="#677f8c" text-anchor="start">82%</text><text x="568" y="458" font-size="16" font-weight="400" fill="#677f8c" text-anchor="start">18%</text><text x="758" y="458" font-size="16" font-weight="400" fill="#677f8c" text-anchor="start">1,6</text><text x="962" y="458" font-size="16" font-weight="400" fill="#677f8c" text-anchor="start">14</text><rect x="52" y="477" width="1096" height="51" rx="0" fill="#ffffff" stroke="none"/><path d="M52,528 L1148,528" stroke="#dae5ea" stroke-width="1" fill="none"/><text x="66" y="509" font-size="16" font-weight="600" fill="#143548" text-anchor="start">Unidade C</text><text x="364" y="509" font-size="16" font-weight="400" fill="#677f8c" text-anchor="start">86%</text><text x="568" y="509" font-size="16" font-weight="400" fill="#677f8c" text-anchor="start">14%</text><text x="758" y="509" font-size="16" font-weight="400" fill="#677f8c" text-anchor="start">1,4</text><text x="962" y="509" font-size="16" font-weight="400" fill="#677f8c" text-anchor="start">12</text><rect x="52" y="528" width="1096" height="51" rx="0" fill="#f7fafb" stroke="none"/><path d="M52,579 L1148,579" stroke="#dae5ea" stroke-width="1" fill="none"/><text x="66" y="560" font-size="16" font-weight="600" fill="#143548" text-anchor="start">Unidade D</text><text x="364" y="560" font-size="16" font-weight="400" fill="#677f8c" text-anchor="start">90%</text><text x="568" y="560" font-size="16" font-weight="400" fill="#677f8c" text-anchor="start">10%</text><text x="758" y="560" font-size="16" font-weight="400" fill="#677f8c" text-anchor="start">1,2</text><text x="962" y="560" font-size="16" font-weight="400" fill="#677f8c" text-anchor="start">10</text><rect x="52" y="579" width="1096" height="51" rx="0" fill="#ffffff" stroke="none"/><path d="M52,630 L1148,630" stroke="#dae5ea" stroke-width="1" fill="none"/><text x="66" y="611" font-size="16" font-weight="600" fill="#143548" text-anchor="start">Unidade E</text><text x="364" y="611" font-size="16" font-weight="400" fill="#677f8c" text-anchor="start">94%</text><text x="568" y="611" font-size="16" font-weight="400" fill="#677f8c" text-anchor="start">6%</text><text x="758" y="611" font-size="16" font-weight="400" fill="#677f8c" text-anchor="start">1,0</text><text x="962" y="611" font-size="16" font-weight="400" fill="#677f8c" text-anchor="start">8</text><rect x="52" y="630" width="1096" height="51" rx="0" fill="#f7fafb" stroke="none"/><path d="M52,681 L1148,681" stroke="#dae5ea" stroke-width="1" fill="none"/><text x="66" y="662" font-size="16" font-weight="600" fill="#143548" text-anchor="start">Unidade F</text><text x="364" y="662" font-size="16" font-weight="400" fill="#677f8c" text-anchor="start">98%</text><text x="568" y="662" font-size="16" font-weight="400" fill="#677f8c" text-anchor="start">2%</text><text x="758" y="662" font-size="16" font-weight="400" fill="#677f8c" text-anchor="start">0,8</text><text x="962" y="662" font-size="16" font-weight="400" fill="#677f8c" text-anchor="start">6</text><rect x="0" y="747" width="1200" height="53" rx="0" fill="#edf3f6" stroke="none"/><path d="M28,757 L1172,757" stroke="#dae5ea" stroke-width="1" fill="none"/><text x="30" y="782" font-size="14" font-weight="400" fill="#677f8c" text-anchor="start">Demonstração com dados fictícios · interface reconstruída para preservar a confidencialidade</text></svg>