<svg xmlns="http://www.w3.org/2000/svg" width="1200" height="800" viewBox="0 0 1200 800" role="img" aria-label="Modelo estrela ilustrativo — demonstração com dados fictícios"><title>Modelo estrela ilustrativo — demonstração com dados fictícios</title><style>text{font-family:'Segoe UI',Arial,sans-serif}*{box-sizing:border-box}</style><rect x="0" y="0" width="1200" height="800" rx="0" fill="#edf3f6" stroke="none"/><rect x="0" y="0" width="1200" height="90" rx="0" fill="#082b40" stroke="none"/><text x="30" y="38" font-size="13" font-weight="600" fill="#9cc4d4" text-anchor="start">PORTFÓLIO / DEMONSTRAÇÃO</text><text x="30" y="69" font-size="25" font-weight="700" fill="white" text-anchor="start">Modelo dimensional</text><rect x="969" y="24" width="204" height="40" rx="20" fill="#20465a" stroke="none"/><text x="1071" y="50" font-size="15" font-weight="700" fill="#d7f4e8" text-anchor="middle">DADOS FICTÍCIOS</text><path d="M325,225 L440,360" stroke="#4f9daf" stroke-width="3" fill="none"/><path d="M875,225 L760,360" stroke="#4f9daf" stroke-width="3" fill="none"/><path d="M325,600 L440,448" stroke="#4f9daf" stroke-width="3" fill="none"/><path d="M875,600 L760,448" stroke="#4f9daf" stroke-width="3" fill="none"/><rect x="440" y="310" width="320" height="185" rx="12" fill="#ffffff" stroke="#dae5ea"/><text x="462" y="344" font-size="20" font-weight="600" fill="#143548" text-anchor="start">Fato · Operações</text><text x="463" y="386" font-size="17" font-weight="400" fill="#677f8c" text-anchor="start">id_operacao</text><text x="463" y="416" font-size="17" font-weight="400" fill="#677f8c" text-anchor="start">id_periodo · id_unidade</text><text x="463" y="446" font-size="17" font-weight="400" fill="#677f8c" text-anchor="start">id_equipe · medidas</text><rect x="40" y="150" width="285" height="150" rx="12" fill="#ffffff" stroke="#dae5ea"/><text x="62" y="184" font-size="20" font-weight="600" fill="#143548" text-anchor="start">Dimensão · Período</text><text x="63" y="226" font-size="17" font-weight="400" fill="#677f8c" text-anchor="start">id_periodo</text><text x="63" y="256" font-size="17" font-weight="400" fill="#677f8c" text-anchor="start">mês · trimestre · ano</text><rect x="875" y="150" width="285" height="150" rx="12" fill="#ffffff" stroke="#dae5ea"/><text x="897" y="184" font-size="20" font-weight="600" fill="#143548" text-anchor="start">Dimensão · Unidade</text><text x="898" y="226" font-size="17" font-weight="400" fill="#677f8c" text-anchor="start">id_unidade</text><text x="898" y="256" font-size="17" font-weight="400" fill="#677f8c" text-anchor="start">categoria · região fictícia</text><rect x="40" y="525" width="285" height="150" rx="12" fill="#ffffff" stroke="#dae5ea"/><text x="62" y="559" font-size="20" font-weight="600" fill="#143548" text-anchor="start">Dimensão · Equipe</text><text x="63" y="601" font-size="17" font-weight="400" fill="#677f8c" text-anchor="start">id_equipe</text><text x="63" y="631" font-size="17" font-weight="400" fill="#677f8c" text-anchor="start">função · qualificação</text><rect x="875" y="525" width="285" height="150" rx="12" fill="#ffffff" stroke="#dae5ea"/><text x="897" y="559" font-size="20" font-weight="600" fill="#143548" text-anchor="start">Dimensão · Serviço</text><text x="898" y="601" font-size="17" font-weight="400" fill="#677f8c" text-anchor="start">id_servico</text><text x="898" y="631" font-size="17" font-weight="400" fill="#677f8c" text-anchor="start">tipo · classificação</text><rect x="0" y="747" width="1200" height="53" rx="0" fill="#edf3f6" stroke="none"/><path d="M28,757 L1172,757" stroke="#dae5ea" stroke-width="1" fill="none"/><text x="30" y="782" font-size="14" font-weight="400" fill="#677f8c" text-anchor="start">Demonstração com dados fictícios · interface reconstruída para preservar a confidencialidade</text></svg>